<?xml version="1.0" encoding="UTF-8"?>
<svg width="1200pt" height="1200pt" version="1.1" viewBox="0 0 1200 1200" xmlns="http://www.w3.org/2000/svg">
 <g fill="#007335">
  <path d="m566.4 21.602h61.199v61.199h-61.199z"/>
  <path d="m566.4 1118.4h61.199v61.199h-61.199z"/>
  <path d="m164.4 943.2h61.199v61.199h-61.199z"/>
  <path d="m951.6 943.2h61.199v61.199h-61.199z"/>
  <path d="m164.4 189.6h61.199v61.199h-61.199z"/>
  <path d="m951.6 189.6h61.199v61.199h-61.199z"/>
  <path d="m10.801 565.2h61.199v61.199h-61.199z"/>
  <path d="m1123.2 565.2h61.199v61.199h-61.199z"/>
  <path d="m122.4 292.8c-45.598 69.598-74.398 146.4-85.199 229.2l-1.1992 7.1992h36l1.1992-6c12-80.398 42-157.2 87.602-224.4l7.1992-9.6016h-42z"/>
  <path d="m70.801 668.4-1.1992-6h-34.801l1.1992 7.2031c10.801 85.199 38.398 163.2 84 235.2l2.3984 2.3984h42l-7.1992-9.6016c-45.598-68.398-75.598-147.6-86.398-229.2z"/>
  <path d="m1122 524.4 1.1992 6h36l-1.1992-7.1992c-12-82.801-40.801-159.6-85.199-229.2l-2.3984-2.3984h-42l7.1992 9.6016c44.398 65.996 74.398 142.8 86.398 223.2z"/>
  <path d="m1124.4 662.4-1.1992 6c-10.801 81.602-40.801 162-86.398 229.2l-7.1992 9.6016h42l2.3984-2.3984c45.602-70.801 74.398-150 84-235.2l1.1992-7.1992z"/>
  <path d="m886.8 157.2 1.1992 1.1992h60l-15.602-12c-75.602-57.602-166.8-94.801-261.6-106.8l-7.1992-1.1992v36l6 1.1992c78.004 10.801 151.2 37.203 217.2 81.602z"/>
  <path d="m260.4 146.4-15.602 12h60l1.1992-1.1992c67.199-44.398 140.4-70.801 219.6-81.602l6-1.1992v-36l-7.1992 1.1992c-96 12.004-187.2 49.203-264 106.8z"/>
  <path d="m892.8 1041.6c-67.199 44.398-144 74.398-224.4 85.199l-6.0039 1.1992v36l7.1992-1.1992c97.199-13.199 189.6-50.398 267.6-110.4l15.602-12z"/>
  <path d="m301.2 1041.6-2.3984-1.1992-58.801-0.003906 15.602 12c78 60 171.6 97.199 268.8 110.4l7.1992 1.1992v-36l-6-1.1992c-80.402-10.797-158.4-40.797-224.4-85.195z"/>
  <path d="m592.8 250.8-330 189.6h660z"/>
  <path d="m871.2 550.8v-52.801h52.801v-36h-660v36h57.602v52.801h15.602v256.8h-15.602v43.199h-58.801v36h660v-36h-51.602v-40.801h-15.602l0.003906-259.2zm-511.2 12h10.801v244.8h-10.801zm45.602 244.8h-10.801v-244.8h10.801zm145.2-4.8008h-15.602v48h-91.199v-43.199h-15.602v-256.8h15.602v-52.801h91.199v52.801h15.602zm24-252h10.801v252h-10.801zm44.398 252h-9.6016v-252h9.6016zm144 7.1992h-15.602v40.801h-88.801v-48h-15.602v-252h15.602v-52.801h88.801v52.801h15.602zm24-259.2h9.6016v258h-9.6016zm44.402 259.2h-10.801v-259.2h10.801z"/>
 </g>
</svg>
